<svg width="14" height="14" viewBox="0 0 14 14" fill="none" xmlns="http://www.w3.org/2000/svg">
<path d="M9.47399 7.4735C9.53468 7.4101 9.58226 7.33533 9.61399 7.2535C9.68067 7.09119 9.68067 6.90914 9.61399 6.74683C9.58226 6.665 9.53468 6.59023 9.47399 6.52683L7.47399 4.52683C7.34845 4.4013 7.17819 4.33077 7.00065 4.33077C6.82312 4.33077 6.65286 4.4013 6.52732 4.52683C6.40178 4.65237 6.33126 4.82263 6.33126 5.00017C6.33126 5.1777 6.40178 5.34796 6.52732 5.4735L7.39399 6.3335H5.00065C4.82384 6.3335 4.65427 6.40374 4.52925 6.52876C4.40422 6.65379 4.33399 6.82335 4.33399 7.00017C4.33399 7.17698 4.40422 7.34655 4.52925 7.47157C4.65427 7.59659 4.82384 7.66683 5.00065 7.66683H7.39399L6.52732 8.52683C6.46483 8.58881 6.41524 8.66254 6.38139 8.74378C6.34755 8.82502 6.33012 8.91216 6.33012 9.00016C6.33012 9.08817 6.34755 9.17531 6.38139 9.25655C6.41524 9.33779 6.46483 9.41152 6.52732 9.4735C6.5893 9.53598 6.66303 9.58558 6.74427 9.61943C6.82551 9.65327 6.91265 9.6707 7.00065 9.6707C7.08866 9.6707 7.1758 9.65327 7.25704 9.61943C7.33828 9.58558 7.41201 9.53598 7.47399 9.4735L9.47399 7.4735ZM13.6673 7.00017C13.6673 5.68162 13.2763 4.39269 12.5438 3.29636C11.8112 2.20004 10.7701 1.34555 9.55188 0.840969C8.3337 0.336385 6.99326 0.204362 5.70005 0.461597C4.40685 0.718832 3.21896 1.35377 2.28661 2.28612C1.35426 3.21847 0.71932 4.40636 0.462086 5.69956C0.204851 6.99277 0.336873 8.33321 0.841457 9.55139C1.34604 10.7696 2.20052 11.8108 3.29685 12.5433C4.39318 13.2758 5.68211 13.6668 7.00065 13.6668C8.76876 13.6668 10.4645 12.9645 11.7147 11.7142C12.9649 10.464 13.6673 8.76828 13.6673 7.00017ZM1.66732 7.00017C1.66732 5.94533 1.98012 4.91419 2.56615 4.03712C3.15218 3.16006 3.98514 2.47648 4.95968 2.07281C5.93421 1.66914 7.00657 1.56352 8.04114 1.76931C9.0757 1.9751 10.026 2.48305 10.7719 3.22893C11.5178 3.97481 12.0257 4.92512 12.2315 5.95968C12.4373 6.99425 12.3317 8.0666 11.928 9.04114C11.5243 10.0157 10.8408 10.8486 9.96369 11.4347C9.08663 12.0207 8.05549 12.3335 7.00065 12.3335C5.58617 12.3335 4.22961 11.7716 3.22942 10.7714C2.22922 9.77121 1.66732 8.41465 1.66732 7.00017Z" fill="#728095"/>
</svg>
