<svg width="60" height="60" viewBox="0 0 60 60" fill="none" xmlns="http://www.w3.org/2000/svg">
<g clip-path="url(#clip0_0_372)">
<rect x="0.5" y="0.5" width="59" height="59" rx="3.5" fill="#0F0F0F"/>
<rect x="0.5" y="0.5" width="59" height="59" rx="3.5" stroke="#FFA800"/>
<path d="M29.417 29.9998L32.3337 27.0832C32.667 26.7498 32.667 26.2498 32.3337 25.9165C32.0003 25.5832 31.5003 25.5832 31.167 25.9165L27.667 29.4165C27.3337 29.7498 27.3337 30.2498 27.667 30.5832L31.167 34.0832C31.3337 34.2498 31.5003 34.3332 31.7503 34.3332C32.0003 34.3332 32.167 34.2498 32.3337 34.0832C32.667 33.7498 32.667 33.2498 32.3337 32.9165L29.417 29.9998Z" fill="#FFA800"/>
</g>
<defs>
<clipPath id="clip0_0_372">
<rect width="60" height="60" rx="4" fill="white"/>
</clipPath>
</defs>
</svg>
