<svg width="60" height="60" viewBox="0 0 60 60" fill="none" xmlns="http://www.w3.org/2000/svg">
<g clip-path="url(#clip0_0_377)">
<rect x="0.5" y="0.5" width="59" height="59" rx="3.5" fill="#0F0F0F"/>
<rect x="0.5" y="0.5" width="59" height="59" rx="3.5" stroke="#FFA800"/>
<path d="M32.9163 29.4165L28.2497 24.6665C27.9163 24.3332 27.4163 24.3332 27.083 24.6665C26.7497 24.9998 26.7497 25.4998 27.083 25.8332L31.1663 29.9165L27.083 33.9998C26.9163 34.1665 26.833 34.3332 26.833 34.5832C26.833 35.0832 27.1663 35.4165 27.6663 35.4165C27.9163 35.4165 28.083 35.3332 28.2497 35.1665L32.9997 30.4165C33.2497 30.2498 33.2497 29.7498 32.9163 29.4165Z" fill="#FFA800"/>
</g>
<defs>
<clipPath id="clip0_0_377">
<rect width="60" height="60" rx="4" fill="white"/>
</clipPath>
</defs>
</svg>
